<svg width="720.000000" height="476.000000" viewBox="0 0 720 476" fill="none" xmlns="http://www.w3.org/2000/svg" xmlns:xlink="http://www.w3.org/1999/xlink">
	<desc>
			Created with Pixso.
	</desc>
	<defs>
		<clipPath id="clip0_857">
			<rect id="undraw_page_not_found_re_e9o6 1" width="720.000000" height="476.000000" fill="white" fill-opacity="0"/>
		</clipPath>
	</defs>
	<g clip-path="url(#clip0_857)">
		<path id="Vector" d="M364.74 133.78C358.32 123.21 350.71 111.92 338.8 108.47C325 104.47 310.83 112.41 298.81 120.25C262.86 143.69 228.23 169.08 195.1 196.33L195.14 196.74C220.93 194.97 246.73 193.19 272.53 191.42C291.16 190.14 310.44 188.69 326.91 179.91C333.16 176.58 339.26 172.13 346.34 171.82C355.14 171.43 362.81 177.55 368.84 183.94C404.5 221.76 414.83 279.58 454.84 312.8C429.61 250.85 399.48 190.99 364.74 133.78Z" fill="#C0C0C0" fill-opacity="1.000000" fill-rule="nonzero"/>
		<path id="Vector" d="M583.97 454.5C580.03 449.54 578.42 448.38 574.53 443.38C542.85 402.59 513.08 360.42 485.2 316.87C466.27 287.29 448.28 257.15 431.23 226.44C423.11 211.84 415.21 197.13 407.54 182.3C401.58 170.8 395.76 159.23 390.07 147.6C388.45 144.27 386.87 140.93 385.29 137.59C381.59 129.72 377.95 121.81 374.04 114.05C369.59 105.2 364.17 95.93 356 89.98C352.28 87.17 347.83 85.46 343.18 85.07C336.52 84.64 330.39 87.38 324.62 90.36C282.39 112.28 242.87 139.76 207.11 171.04C171.27 202.38 139.23 237.79 111.65 276.54C110.81 277.74 108.81 276.59 109.66 275.38C113.02 270.66 116.44 265.99 119.92 261.37C163.28 203.97 216.43 154.61 276.96 115.54C287.14 108.97 297.52 102.71 308.09 96.75C313.41 93.75 318.76 90.78 324.2 88C329.53 85.28 335.2 82.82 341.29 82.73C362.02 82.41 372.76 105.79 380.14 121.52C382.45 126.47 384.8 131.41 387.17 136.33C396.14 155.01 405.46 173.52 415.12 191.86C421.08 203.18 427.18 214.43 433.4 225.62C452.77 260.47 473.35 294.61 495.16 328.05C524.04 372.34 552.7 411.46 585.6 452.88C586.51 454.03 584.89 455.66 583.97 454.5Z" fill="#C0C0C0" fill-opacity="1.000000" fill-rule="nonzero"/>
		<path id="Vector" d="M205.07 159.49C203.86 158.15 202.66 156.82 201.45 155.48C191.89 144.95 181.63 134.55 168.5 128.51C162.24 125.54 155.41 123.96 148.47 123.89C141.3 123.91 134.3 125.78 127.68 128.4C124.54 129.65 121.48 131.06 118.47 132.57C115.02 134.29 111.64 136.14 108.27 137.99C101.95 141.48 95.7 145.11 89.54 148.9C77.29 156.44 65.42 164.56 53.93 173.25C47.98 177.76 42.14 182.41 36.43 187.22C31.12 191.68 25.92 196.26 20.83 200.96C19.74 201.96 18.11 200.34 19.2 199.34C20.54 198.1 21.9 196.86 23.26 195.64C27.09 192.18 30.99 188.8 34.95 185.48C42.17 179.41 49.58 173.58 57.18 167.98C68.99 159.27 81.2 151.15 93.83 143.62C100.13 139.86 106.53 136.26 113.01 132.82C114.97 131.78 116.95 130.76 118.95 129.8C123.5 127.52 128.22 125.61 133.07 124.08C139.95 121.87 147.22 121.15 154.39 121.99C161.32 123 168 125.3 174.07 128.77C186.96 135.94 196.96 147.04 206.69 157.86C207.67 158.96 206.06 160.59 205.07 159.49Z" fill="#C0C0C0" fill-opacity="1.000000" fill-rule="nonzero"/>
		<path id="Vector" d="M469.22 268.59L500.11 257.34L515.45 251.76C520.44 249.94 525.42 247.87 530.59 246.56C535.08 245.29 539.84 245.35 544.29 246.74C548.27 248.2 551.9 250.44 554.98 253.34C558.13 256.22 561.06 259.34 563.75 262.66C567.09 266.65 570.38 270.69 573.69 274.72C587.33 291.32 600.88 308 614.34 324.75C627.8 341.51 641.17 358.33 654.45 375.22C667.76 392.16 680.99 409.16 694.12 426.24C695.72 428.33 697.33 430.42 698.94 432.52C699.83 433.68 701.83 432.54 700.93 431.36C687.7 414.11 674.38 396.94 660.97 379.83C647.52 362.68 633.99 345.6 620.36 328.6C606.73 311.6 593 294.67 579.19 277.82C575.75 273.62 572.3 269.42 568.85 265.23C565.93 261.7 563.05 258.13 559.86 254.84C554 248.8 546.67 243.46 537.9 243.32C532.74 243.23 527.75 244.86 522.96 246.59C517.8 248.45 512.65 250.34 507.49 252.22L476.38 263.55L468.6 266.38C467.22 266.88 467.82 269.1 469.22 268.59Z" fill="#C0C0C0" fill-opacity="1.000000" fill-rule="nonzero"/>
		<path id="Vector" d="M164.43 141.76C148.74 133.73 128.63 135.3 114.21 145.33C141.72 150.06 168.94 156.39 195.71 164.27C184.59 157.79 175.9 147.62 164.43 141.76Z" fill="#C0C0C0" fill-opacity="1.000000" fill-rule="nonzero"/>
		<path id="Vector" d="M114.05 145.31L111.03 147.75C112.05 146.9 113.11 146.09 114.21 145.33C114.15 145.33 114.1 145.32 114.05 145.31Z" fill="#C0C0C0" fill-opacity="1.000000" fill-rule="nonzero"/>
		<path id="Vector" d="M553.82 268.7C550.78 265.02 547.49 261.16 542.94 259.66L538.7 259.83C571.02 316.7 614.68 366.39 666.99 405.86C629.27 360.14 591.55 314.42 553.82 268.7Z" fill="#C0C0C0" fill-opacity="1.000000" fill-rule="nonzero"/>
		<path id="Vector" d="M289.75 238.3C291.72 245.41 296.14 251.6 302.25 255.77C304.61 257.37 307.4 258.9 308.21 261.63C308.64 263.37 308.37 265.2 307.48 266.76C306.59 268.29 305.5 269.7 304.25 270.96L304.13 271.38C298.27 267.93 292.7 263.56 289.47 257.59C286.23 251.63 285.78 243.81 289.75 238.3Z" fill="#C0C0C0" fill-opacity="1.000000" fill-rule="nonzero"/>
		<path id="Vector" d="M484.79 407.48C486.76 414.59 491.18 420.78 497.29 424.95C499.65 426.55 502.44 428.09 503.25 430.81C503.68 432.55 503.41 434.39 502.52 435.94C501.63 437.47 500.54 438.88 499.29 440.14L499.17 440.57C493.31 437.11 487.74 432.74 484.51 426.77C481.27 420.81 480.82 412.99 484.79 407.48Z" fill="#C0C0C0" fill-opacity="1.000000" fill-rule="nonzero"/>
		<path id="Vector" d="M95.55 395.82C97.51 402.92 101.94 409.11 108.05 413.28C110.41 414.88 113.2 416.42 114.01 419.15C114.43 420.88 114.17 422.72 113.28 424.27C112.38 425.8 111.3 427.21 110.04 428.47L109.93 428.9C104.07 425.44 98.5 421.07 95.26 415.1C92.03 409.14 91.57 401.32 95.55 395.82Z" fill="#C0C0C0" fill-opacity="1.000000" fill-rule="nonzero"/>
		<path id="Vector" d="M586.16 42.5C586.16 65.97 567.05 85 543.47 85C519.89 85 500.78 65.97 500.78 42.5C500.78 19.02 519.89 0 543.47 0C567.05 0 586.16 19.02 586.16 42.5Z" fill="#6200EE" fill-opacity="1.000000" fill-rule="evenodd"/>
		<path id="Vector" d="M620.51 9.89C599.82 7.1 576.2 18.24 570.84 38.33C569.49 34.75 567.03 31.7 563.82 29.61C560.61 27.52 556.82 26.5 552.99 26.7C549.16 26.89 545.5 28.29 542.52 30.7C539.55 33.11 537.42 36.39 536.44 40.08L538.81 41.77C583.15 51.32 629.04 51.11 673.29 41.17C658.9 26.11 641.2 12.67 620.51 9.89Z" fill="#C0C0C0" fill-opacity="1.000000" fill-rule="nonzero"/>
		<path id="Vector" d="M531.78 66.56C511.09 63.78 487.47 74.91 482.11 95C480.76 91.43 478.3 88.38 475.09 86.28C471.88 84.19 468.09 83.17 464.26 83.37C460.43 83.56 456.77 84.97 453.79 87.37C450.82 89.78 448.68 93.07 447.71 96.76L450.08 98.45C494.41 107.99 540.31 107.79 584.56 97.84C570.17 82.78 552.47 69.34 531.78 66.56Z" fill="#C0C0C0" fill-opacity="1.000000" fill-rule="nonzero"/>
		<path id="Vector" d="M712.36 77.28C712.28 77.28 712.19 77.26 712.11 77.24C490.78 7.55 295.71 16.66 171.04 36.58C154.07 39.29 137.06 42.42 120.47 45.88C116.24 46.76 111.85 47.71 107.42 48.69C102.13 49.87 96.91 51.08 91.9 52.28C89.74 52.79 87.62 53.31 85.55 53.82C82.4 54.6 79.21 55.4 75.79 56.29C71.96 57.27 68.08 58.3 64.24 59.35C64.22 59.35 64.21 59.36 64.19 59.36L64.19 59.36C59.86 60.54 55.54 61.75 51.37 62.97C49.11 63.62 46.93 64.26 44.84 64.89C44.61 64.95 44.4 65.01 44.19 65.08L43.74 65.21C43.48 65.29 43.22 65.37 42.97 65.44L42.95 65.45L42.95 65.45L42.27 65.66C41.46 65.9 40.67 66.14 39.89 66.38C19.35 72.69 8.05 77.17 7.94 77.22C7.84 77.26 7.73 77.28 7.62 77.28C7.51 77.27 7.4 77.25 7.3 77.21C7.2 77.17 7.11 77.1 7.03 77.02C6.95 76.95 6.89 76.85 6.85 76.75C6.81 76.65 6.79 76.54 6.79 76.43C6.79 76.32 6.82 76.21 6.86 76.11C6.9 76.01 6.97 75.92 7.04 75.85C7.12 75.77 7.22 75.71 7.32 75.67C7.43 75.62 18.78 71.12 39.4 64.79C40.18 64.55 40.97 64.31 41.79 64.06L42.42 63.87C42.44 63.86 42.46 63.85 42.48 63.85C42.74 63.78 42.99 63.7 43.25 63.62L43.7 63.48C43.93 63.42 44.15 63.35 44.37 63.29C46.45 62.66 48.64 62.02 50.9 61.37C55.08 60.15 59.39 58.94 63.74 57.76C63.75 57.75 63.76 57.75 63.78 57.75C67.63 56.69 71.53 55.66 75.37 54.67C78.79 53.79 81.99 52.98 85.14 52.21C87.23 51.69 89.35 51.17 91.51 50.66C96.52 49.45 101.75 48.24 107.05 47.07C111.49 46.08 115.89 45.13 120.13 44.25C136.74 40.78 153.78 37.65 170.77 34.93C295.62 14.99 490.97 5.86 712.61 75.65C712.8 75.71 712.97 75.83 713.07 76C713.18 76.17 713.22 76.37 713.19 76.57C713.16 76.77 713.06 76.95 712.91 77.07C712.75 77.2 712.56 77.28 712.36 77.28Z" fill="#C0C0C0" fill-opacity="1.000000" fill-rule="nonzero"/>
		<path id="Vector" d="M220.14 349.89C219.85 349.05 219.36 348.29 218.72 347.67C218.48 347.45 218.22 347.25 217.95 347.08C215.76 345.63 212.5 345.3 210.42 347.08C210.21 347.26 210.02 347.46 209.84 347.67C209.22 348.43 208.59 349.17 207.93 349.89C206.86 351.11 205.77 352.29 204.62 353.43C204.29 353.74 203.97 354.07 203.63 354.39C203.44 354.58 203.25 354.76 203.05 354.94C202.32 355.64 201.56 356.32 200.8 356.99C200.4 357.34 200 357.69 199.59 358.04C198.98 358.54 198.37 359.05 197.75 359.54C197.69 359.59 197.63 359.63 197.57 359.68C197.55 359.69 197.55 359.7 197.53 359.71C197.52 359.71 197.51 359.71 197.5 359.73C197.48 359.74 197.46 359.75 197.45 359.77C197.26 359.9 197.14 359.98 197.04 360.05C197.08 360.04 197.11 360.01 197.14 360C196.99 360.11 196.83 360.23 196.68 360.34C195.22 361.42 193.72 362.45 192.19 363.42C188.4 365.84 184.42 367.94 180.29 369.71C180.01 369.82 179.72 369.94 179.44 370.05C168.62 374.46 156.88 376.18 145.25 375.06C144.06 374.97 142.87 374.85 141.68 374.69C140.31 374.49 138.94 374.25 137.59 373.97C132.42 372.95 127.37 371.43 122.5 369.44C116.41 366.66 110.62 363.28 105.21 359.34C104.37 358.74 103.52 358.15 102.68 357.58C103.64 355.23 104.59 352.88 105.51 350.51C105.97 349.37 106.41 348.23 106.85 347.08C110.27 338.22 113.49 329.28 116.57 320.3C119.68 311.21 122.62 302.06 125.38 292.86C125.67 291.93 125.94 291 126.21 290.06C127.66 285.2 129.05 280.33 130.38 275.45C130.5 274.98 130.64 274.51 130.75 274.04C131.14 272.64 131.52 271.24 131.89 269.84C132.72 266.68 130.83 262.9 127.5 262.14C125.89 261.73 124.19 261.96 122.75 262.78C121.31 263.59 120.25 264.93 119.78 266.51C119.42 267.86 119.06 269.2 118.69 270.55C116.93 277.08 115.07 283.58 113.12 290.06C112.83 291 112.55 291.93 112.26 292.86C107.96 306.98 103.24 320.96 98.09 334.79C97.47 336.47 96.84 338.14 96.21 339.8C95.9 340.62 95.59 341.43 95.27 342.25C94.66 343.86 94.03 345.47 93.4 347.08C93.04 348.02 92.68 348.96 92.31 349.89C92.06 350.49 91.83 351.08 91.6 351.66C89.21 350.81 86.74 350.22 84.22 349.89L83.82 349.84C81.87 349.61 79.9 349.63 77.95 349.89C75.04 350.23 72.24 351.2 69.74 352.74C67.25 354.27 65.13 356.34 63.52 358.78C59.53 365.04 59.58 373.99 65.18 379.31C70.95 384.78 79.68 384.74 86.46 381.31C90.06 379.38 93.1 376.55 95.27 373.1C96.1 371.85 96.87 370.55 97.56 369.22C97.74 369.34 97.92 369.45 98.09 369.58C98.76 370.05 99.43 370.52 100.09 370.99C103.95 373.77 108.01 376.25 112.24 378.41C121.34 382.92 131.14 385.87 141.22 387.14C141.44 387.16 141.66 387.2 141.89 387.22C143 387.36 144.12 387.47 145.25 387.56C161.34 388.77 177.45 385.49 191.77 378.1C192.98 377.47 194.19 376.82 195.38 376.13C197.23 375.06 199.04 373.93 200.8 372.73C201.77 372.08 202.7 371.42 203.63 370.73C207.69 367.75 211.48 364.42 214.94 360.77C216.25 359.39 217.51 357.98 218.72 356.51C219.85 355.31 220.51 353.74 220.56 352.09C220.55 351.34 220.41 350.6 220.14 349.89ZM81.53 369.75C81.7 369.62 81.88 369.49 82.04 369.35C81.99 369.48 81.75 369.62 81.53 369.75ZM84.21 367.05C84.02 367.27 83.84 367.49 83.65 367.7C83.07 368.36 82.44 368.97 81.77 369.54C81.68 369.62 81.58 369.7 81.48 369.78C81.47 369.78 81.47 369.78 81.47 369.78C81.47 369.78 81.47 369.78 81.47 369.78C81.47 369.78 81.47 369.78 81.47 369.78C81.47 369.79 81.47 369.79 81.47 369.79C81.35 369.84 81.23 369.9 81.12 369.97C80.76 370.19 80.39 370.39 80.01 370.57C79.27 370.84 78.51 371.05 77.74 371.2C77.15 371.24 76.55 371.24 75.96 371.21L75.94 371.21C75.53 371.12 75.13 371.01 74.73 370.88C74.53 370.78 74.34 370.66 74.14 370.55C74.07 370.48 74 370.41 73.96 370.37C73.88 370.3 73.8 370.22 73.73 370.13C73.73 370.13 73.73 370.13 73.73 370.13C73.73 370.13 73.73 370.12 73.73 370.12C73.73 370.12 73.73 370.12 73.73 370.12C73.73 370.12 73.73 370.12 73.72 370.12C73.63 369.95 73.53 369.79 73.44 369.62C73.43 369.62 73.43 369.61 73.43 369.6C73.36 369.4 73.31 369.18 73.26 368.96C73.24 368.58 73.24 368.2 73.26 367.82C73.38 367.29 73.53 366.76 73.72 366.25C73.89 365.89 74.08 365.54 74.29 365.2C74.31 365.17 74.39 365.04 74.49 364.89C74.49 364.88 74.49 364.88 74.49 364.87C74.62 364.73 74.75 364.58 74.88 364.45C75.11 364.2 75.35 363.98 75.59 363.75C76.06 363.45 76.55 363.16 77.06 362.91C77.85 362.63 78.68 362.41 79.51 362.25C80.74 362.16 81.97 362.17 83.2 362.29C84.36 362.49 85.51 362.77 86.63 363.13C85.95 364.44 85.18 365.71 84.31 366.91C84.28 366.96 84.25 367.01 84.21 367.05ZM74.9 364.31C74.83 364.43 74.74 364.54 74.64 364.64C74.71 364.51 74.8 364.4 74.9 364.31Z" fill="#151515" fill-opacity="1.000000" fill-rule="nonzero"/>
		<path id="Vector" d="M194.98 264.78C194.9 267.39 194.83 270.01 194.75 272.63C194.59 278.44 194.43 284.25 194.26 290.06C194.08 296.6 193.9 303.15 193.7 309.68C193.61 313.06 193.52 316.43 193.42 319.81C193.16 328.9 192.9 337.99 192.65 347.08C192.62 348.02 192.59 348.95 192.57 349.89C192.44 354.4 192.31 358.91 192.19 363.42C192.05 368.31 191.91 373.2 191.77 378.1C191.67 381.76 191.57 385.43 191.46 389.11C190.71 415.72 189.95 442.33 189.2 468.94C189.17 470.59 188.5 472.16 187.33 473.32C186.16 474.49 184.58 475.16 182.92 475.19C181.26 475.18 179.67 474.51 178.5 473.34C177.32 472.17 176.66 470.59 176.64 468.94C177.06 453.97 177.49 439 177.92 424.03C178.29 410.5 178.68 396.96 179.06 383.43C179.19 378.97 179.31 374.51 179.44 370.05C179.63 363.33 179.82 356.61 180.01 349.89C180.03 348.95 180.07 348.02 180.09 347.08C180.11 346.25 180.13 345.44 180.16 344.61C180.53 331.57 180.9 318.52 181.26 305.47C181.42 300.34 181.56 295.2 181.7 290.06C181.87 284.2 182.03 278.35 182.2 272.5C182.28 269.92 182.34 267.35 182.42 264.78C182.45 263.13 183.12 261.56 184.29 260.39C185.46 259.23 187.04 258.56 188.7 258.53C190.36 258.54 191.95 259.2 193.12 260.37C194.3 261.54 194.96 263.12 194.98 264.78Z" fill="#151515" fill-opacity="1.000000" fill-rule="nonzero"/>
		<path id="Vector" d="M539.37 266.51C532.79 291.33 524.92 315.79 515.8 339.8C513.28 346.43 510.71 353.04 507.96 359.57L508.59 358.07C507.36 361.18 505.79 364.15 503.91 366.92C503.78 367.09 503.65 367.27 503.52 367.45C504.17 366.62 504.29 366.45 503.89 366.96C503.68 367.21 503.47 367.46 503.25 367.7C502.66 368.35 502.03 368.97 501.37 369.54C501.2 369.68 501.03 369.82 500.85 369.96L501.64 369.35C501.55 369.56 500.91 369.85 500.71 369.97C500.06 370.36 499.39 370.7 498.7 370.99L500.2 370.36C499.06 370.81 497.87 371.14 496.65 371.32L498.32 371.1C497.13 371.26 495.92 371.28 494.72 371.14L496.39 371.36C495.41 371.23 494.46 370.97 493.54 370.6L495.04 371.23C494.56 371.02 494.09 370.77 493.64 370.48C493.41 370.33 492.71 369.81 493.63 370.5C494.57 371.22 493.75 370.56 493.55 370.37C493.39 370.21 493.24 370.04 493.08 369.87C492.35 369.12 493.92 371.17 493.42 370.29C493.15 369.85 492.9 369.39 492.68 368.93L493.31 370.42C493.03 369.71 492.82 368.97 492.7 368.21L492.93 369.87C492.81 368.93 492.81 367.98 492.93 367.03L492.7 368.7C492.85 367.64 493.13 366.61 493.53 365.63L492.9 367.12C493.18 366.46 493.51 365.82 493.89 365.21C494.06 364.89 494.27 364.59 494.5 364.31C494.54 364.33 493.44 365.57 494.02 364.94C494.17 364.78 494.32 364.61 494.47 364.44C494.72 364.18 494.99 363.94 495.25 363.69C496.12 362.86 494.02 364.5 495.03 363.84C495.76 363.36 496.53 362.95 497.33 362.59L495.83 363.22C497.17 362.68 498.58 362.3 500.02 362.11L498.35 362.33C500.14 362.12 501.96 362.15 503.75 362.39L502.08 362.17C504.36 362.51 506.57 363.13 508.69 364.02L507.19 363.39C511.7 365.32 515.7 368.18 519.69 370.99C523.54 373.77 527.6 376.25 531.83 378.41C540.93 382.92 550.73 385.87 560.81 387.14C575.27 388.9 589.95 387.02 603.49 381.67C617.03 376.32 629 367.67 638.31 356.51C639.45 355.31 640.1 353.74 640.15 352.09C640.14 350.44 639.48 348.85 638.31 347.67C636.01 345.57 631.66 344.97 629.43 347.67C627.33 350.23 625.06 352.66 622.65 354.95C621.52 356.01 620.37 357.04 619.18 358.04C618.5 358.61 617.82 359.17 617.12 359.71C616.79 359.97 615.77 360.66 617.34 359.55C616.98 359.8 616.63 360.08 616.28 360.34C611.01 364.21 605.29 367.45 599.26 369.98L600.76 369.35C594.28 372.06 587.48 373.91 580.52 374.87L582.19 374.65C575.04 375.59 567.79 375.58 560.64 374.62L562.31 374.84C555.15 373.86 548.16 371.97 541.5 369.2L543 369.83C536.57 367 530.47 363.48 524.8 359.33C521.85 357.16 518.74 355.21 515.5 353.51C511.72 351.58 507.63 350.35 503.41 349.85C495.51 348.92 487.46 351.99 483.12 358.78C479.12 365.04 479.17 373.99 484.77 379.31C490.54 384.78 499.27 384.74 506.06 381.31C512.61 378.01 516.54 371.15 519.3 364.69C525.52 350.14 531.03 335.26 536.16 320.3C541.24 305.5 545.84 290.55 549.97 275.45C550.48 273.58 550.99 271.71 551.48 269.84C552.32 266.68 550.43 262.9 547.1 262.15C545.49 261.74 543.79 261.96 542.35 262.78C540.91 263.59 539.84 264.93 539.37 266.51Z" fill="#151515" fill-opacity="1.000000" fill-rule="nonzero"/>
		<path id="Vector" d="M602.02 264.78L599.76 344.61L597.51 424.03L596.24 468.94C596.25 470.59 596.92 472.17 598.09 473.34C599.27 474.51 600.85 475.18 602.52 475.19C604.17 475.16 605.75 474.49 606.92 473.32C608.09 472.16 608.76 470.59 608.79 468.94L611.05 389.1L613.3 309.68L614.57 264.78C614.56 263.12 613.89 261.54 612.72 260.37C611.54 259.2 609.95 258.54 608.29 258.53C606.64 258.56 605.06 259.23 603.89 260.39C602.72 261.56 602.05 263.13 602.02 264.78Z" fill="#151515" fill-opacity="1.000000" fill-rule="nonzero"/>
		<g opacity="0.200000">
			<path id="Vector" d="M384.71 446.65L386.66 446.65L386.66 358.27L432.14 358.27L432.14 356.34L386.66 356.34L386.66 319.05L421.78 319.05C421.27 318.39 420.74 317.75 420.19 317.12L386.66 317.12L386.66 292.49C386.02 292.21 385.37 291.95 384.71 291.7L384.71 317.12L346.5 317.12L346.5 285.56C345.84 285.59 345.2 285.63 344.55 285.69L344.55 317.12L314.06 317.12L314.06 293.57C313.41 293.86 312.76 294.16 312.12 294.48L312.12 317.12L286.49 317.12L286.49 319.05L312.12 319.05L312.12 356.34L286.49 356.34L286.49 358.27L312.12 358.27L312.12 446.65L314.06 446.65L314.06 358.27C318.06 358.27 322.03 359.06 325.73 360.58C329.43 362.11 332.79 364.34 335.62 367.16C338.45 369.98 340.7 373.33 342.23 377.01C343.76 380.69 344.55 384.64 344.55 388.63L344.55 446.65L346.5 446.65L346.5 358.27L384.71 358.27L384.71 446.65ZM314.06 356.34L314.06 319.05L344.55 319.05L344.55 356.34L314.06 356.34ZM346.5 356.34L346.5 319.05L347.26 319.05C352.18 319.05 357.05 320.01 361.59 321.89C366.14 323.76 370.27 326.51 373.74 329.97C377.22 333.43 379.98 337.54 381.86 342.07C383.74 346.59 384.71 351.44 384.71 356.34L346.5 356.34Z" fill="#151515" fill-opacity="1.000000" fill-rule="nonzero"/>
		</g>
		<path id="Vector" d="M372.81 420.15C370.35 431.05 364.47 440.89 356.02 448.24C355.4 448.77 354.78 449.29 354.14 449.79C352.57 449.94 351.02 450.08 349.48 450.23C348.2 450.34 346.93 450.47 345.68 450.59L345.45 450.61L345.29 449.24L344.65 443.71C342.19 439.7 340.66 435.19 340.18 430.51C339.7 425.83 340.29 421.1 341.89 416.68C344.1 410.74 348.1 405.5 352.04 400.3C357.47 393.11 362.75 386.01 362.94 377.25C365.62 380.66 367.84 384.39 369.56 388.36C367.94 389.12 366.48 390.19 365.27 391.51C364.93 391.88 364.59 392.41 364.82 392.86C365.02 393.24 365.52 393.33 365.96 393.38C367 393.49 368.06 393.6 369.11 393.71C369.94 393.8 370.78 393.88 371.62 393.97C372.63 397.28 373.32 400.68 373.67 404.12C374.23 409.48 373.94 414.89 372.81 420.15Z" fill="#151515" fill-opacity="1.000000" fill-rule="nonzero"/>
		<path id="Vector" d="M400.6 398.31C395.66 401.88 392.77 407.02 390.53 412.69C388.23 413.42 386.16 414.74 384.52 416.51C384.18 416.88 383.84 417.41 384.07 417.86C384.27 418.24 384.78 418.33 385.21 418.38C386.26 418.49 387.31 418.6 388.36 418.71C386.12 425.41 384.06 432.34 380.09 438C377.45 441.74 374.01 444.84 370.02 447.09C368.93 447.71 367.81 448.27 366.65 448.75C362.4 449.08 358.23 449.43 354.14 449.79C352.57 449.94 351.02 450.08 349.48 450.23C348.2 450.34 346.93 450.47 345.68 450.59C345.67 450.13 345.67 449.67 345.68 449.21C345.94 437 350.45 425.26 358.44 415.99C358.82 415.56 359.2 415.13 359.6 414.71C363.64 410.4 368.4 406.82 373.67 404.12C381.96 399.83 391.26 397.82 400.6 398.31Z" fill="#6200EE" fill-opacity="1.000000" fill-rule="nonzero"/>
		<path id="Vector" d="M350.92 445.95L349.96 448.79L349.48 450.23C348.2 450.34 346.93 450.47 345.68 450.59L345.45 450.61C344.06 450.75 342.68 450.89 341.3 451.04C340.94 450.62 340.58 450.19 340.23 449.76C331.49 439.23 327.29 425.68 328.56 412.07C329.83 398.47 336.45 385.92 346.98 377.16C345.88 382.92 347.17 388.44 349.28 393.91C349.06 394.01 348.84 394.1 348.63 394.2C347.01 394.96 345.55 396.02 344.35 397.34C344 397.71 343.66 398.24 343.89 398.69C344.09 399.07 344.6 399.17 345.03 399.22C346.08 399.32 347.13 399.43 348.18 399.54C349.02 399.63 349.85 399.72 350.69 399.81C351.08 399.85 351.48 399.89 351.87 399.93C351.93 400.06 351.98 400.17 352.04 400.3C354.42 405.45 356.99 410.62 358.44 415.99C358.8 417.34 359.09 418.7 359.3 420.08C359.94 424.74 359.52 429.49 358.07 433.97C356.62 438.45 354.18 442.54 350.92 445.95Z" fill="#6200EE" fill-opacity="1.000000" fill-rule="nonzero"/>
		<path id="Vector" d="M435.18 325.07C427.98 311.08 416.81 299.31 403.68 290.65C390.51 282.01 375.39 276.75 359.68 275.33C357.62 275.15 355.56 275.04 353.49 275.01C351.04 274.97 314.26 285.53 301.94 294.16C289.62 302.68 279.49 313.97 272.36 327.1C265.24 340.31 261.74 355.15 262.21 370.13C262.82 385.21 267.04 399.92 274.52 413.04C281.89 426.11 292.36 437.2 305.02 445.33C317.86 453.48 330.76 475.11 345.92 475.87C361.19 476.64 378.61 456.24 392.54 450.05C406.47 443.8 418.51 434.03 427.47 421.71C436.17 409.63 441.8 395.63 443.87 380.91C446.03 365.84 445.02 350.3 439.85 335.9C438.53 332.19 436.97 328.58 435.18 325.07C433.69 322.15 429.33 321.08 426.59 322.83C425.19 323.7 424.17 325.07 423.75 326.66C423.33 328.25 423.54 329.94 424.34 331.39C425.22 333.1 426.03 334.84 426.78 336.62L426.15 335.12C429 341.94 430.93 349.09 431.91 356.41L431.68 354.75C432.72 362.68 432.7 370.72 431.63 378.65L431.85 376.99C430.76 384.92 428.64 392.67 425.53 400.05L426.16 398.56C424.56 402.32 422.69 405.97 420.57 409.48C419.5 411.25 418.36 412.97 417.16 414.66C416.63 415.4 416.08 416.13 415.54 416.85C414.82 417.8 416.51 415.62 415.77 416.55C415.65 416.7 415.52 416.86 415.39 417.02C415.01 417.49 414.63 417.96 414.24 418.43C411.63 421.53 408.78 424.42 405.72 427.08C404.96 427.74 404.18 428.39 403.39 429.02C403 429.34 402.61 429.67 402.2 429.96C402.22 429.95 403.53 428.96 402.75 429.53C402.51 429.71 402.27 429.9 402.02 430.08C400.4 431.28 398.73 432.41 397.02 433.49C393.09 435.96 388.96 438.11 384.67 439.92L386.17 439.29C378.78 442.38 371.01 444.5 363.07 445.58L364.74 445.36C356.8 446.42 348.75 446.44 340.81 445.4L342.48 445.62C335.26 444.66 328.2 442.76 321.47 439.97L322.97 440.6C319.07 438.96 315.32 437.01 311.74 434.77C309.97 433.66 308.24 432.48 306.56 431.23C306.32 431.05 306.09 430.87 305.85 430.69C305.08 430.12 306.4 431.12 306.41 431.13C305.96 430.81 305.53 430.47 305.12 430.1C304.31 429.45 303.51 428.77 302.73 428.09C299.58 425.33 296.65 422.35 293.95 419.16C293.27 418.36 292.6 417.56 291.96 416.74C291.68 416.38 291.17 415.66 292.3 417.18C292.15 416.98 291.99 416.78 291.84 416.58C291.48 416.11 291.13 415.63 290.78 415.14C289.54 413.45 288.38 411.71 287.27 409.94C284.77 405.92 282.58 401.71 280.74 397.35L281.37 398.84C278.35 391.68 276.28 384.16 275.22 376.47L275.45 378.13C274.49 371.05 274.48 363.86 275.41 356.77L275.18 358.43C276.13 351.56 277.99 344.85 280.7 338.46L280.07 339.96C281.78 335.96 283.79 332.1 286.09 328.41C287.25 326.56 288.47 324.76 289.76 323C290.05 322.6 290.35 322.21 290.65 321.81C290.92 321.46 291.66 320.57 290.39 322.14C290.52 321.98 290.64 321.82 290.76 321.67C291.47 320.78 292.19 319.9 292.94 319.03C295.75 315.76 298.79 312.69 302.05 309.85C302.87 309.13 303.7 308.43 304.55 307.74C304.94 307.43 305.33 307.12 305.72 306.81C305.87 306.69 306.03 306.57 306.19 306.45C304.51 307.77 305.72 306.81 306.1 306.52C307.85 305.22 309.65 303.98 311.49 302.81C315.58 300.2 319.89 297.94 324.37 296.05L322.87 296.68C329.37 293.96 358.14 287.55 363.38 288.25L361.71 288.03C369.4 289.1 376.92 291.17 384.08 294.18L382.58 293.55C386.2 295.09 389.72 296.85 393.12 298.83C394.82 299.82 396.49 300.86 398.12 301.96C398.89 302.48 399.66 303.01 400.41 303.56C400.79 303.83 401.16 304.1 401.54 304.38C401.75 304.54 401.95 304.69 402.16 304.85C403.03 305.5 400.96 303.91 401.87 304.63C404.92 307.01 407.82 309.59 410.55 312.34C411.89 313.7 413.19 315.1 414.43 316.54C415.07 317.28 415.7 318.04 416.31 318.8C416.62 319.18 417.66 320.55 416.38 318.87C416.7 319.28 417.01 319.69 417.32 320.1C419.96 323.67 422.31 327.44 424.34 331.39C425.84 334.3 430.19 335.39 432.93 333.63C434.34 332.76 435.36 331.39 435.78 329.8C436.2 328.21 435.99 326.51 435.18 325.07Z" fill="#151515" fill-opacity="1.000000" fill-rule="nonzero"/>
		<path id="Vector" d="M362.03 427.08C361.38 427.11 360.74 426.94 360.19 426.6C359.64 426.25 359.22 425.75 358.97 425.15C358.72 424.55 358.66 423.9 358.79 423.26C358.93 422.63 359.26 422.06 359.74 421.62C359.82 421.31 359.87 421.08 359.95 420.76C359.93 420.69 359.9 420.63 359.87 420.56C356.96 413.64 338.37 432.92 337.56 439.42C337.21 442.29 337.36 445.2 338.01 448.03C331.98 434.95 328.86 420.74 328.84 406.35C328.84 402.74 329.04 399.14 329.44 395.55C329.77 392.61 330.24 389.69 330.83 386.79C334.06 371.06 340.98 356.32 351.04 343.77C356.8 344.09 361.84 343.22 362.33 332.12C362.42 330.14 363.89 328.43 364.21 326.49C363.66 326.56 363.1 326.6 362.55 326.64C362.38 326.65 362.2 326.66 362.03 326.66L361.97 326.67C361.36 326.69 360.76 326.55 360.24 326.24C359.72 325.94 359.3 325.49 359.03 324.95C358.76 324.42 358.64 323.81 358.71 323.22C358.77 322.62 359.01 322.05 359.39 321.58C359.63 321.29 359.87 321 360.1 320.71C360.46 320.26 360.83 319.82 361.19 319.38C361.24 319.33 361.27 319.29 361.31 319.24C361.73 318.73 362.14 318.23 362.55 317.72C361.8 316.55 360.78 315.57 359.58 314.86C355.43 312.44 349.7 314.11 346.7 317.85C343.7 321.59 343.13 326.84 344.17 331.51C345.2 335.48 346.9 339.25 349.2 342.66C348.97 342.95 348.74 343.22 348.51 343.51C344.4 348.78 340.81 354.44 337.81 360.4C338.66 353.79 328.25 329.89 324.23 324.83C319.4 318.75 309.49 321.41 308.64 329.11C308.63 329.19 308.62 329.26 308.61 329.34C309.21 329.67 309.79 330.03 310.37 330.41C311.09 330.88 311.64 331.57 311.97 332.37C312.29 333.16 312.36 334.04 312.17 334.88C311.99 335.72 311.55 336.49 310.92 337.08C310.29 337.66 309.49 338.05 308.64 338.18L308.55 338.19C300.55 349.57 326.19 379.16 332.61 372.52C329.59 381.04 327.7 389.92 326.97 398.93C326.57 404.24 326.59 409.58 327.05 414.9L327.02 414.71C325.59 403.14 301.13 385.94 293.98 387.37C289.87 388.2 285.81 388.01 286.44 392.14C286.45 392.21 286.46 392.27 286.47 392.34C287.58 392.79 288.66 393.31 289.7 393.89C290.3 394.23 290.88 394.58 291.46 394.96C292.18 395.44 292.73 396.12 293.05 396.92C293.38 397.72 293.45 398.6 293.26 399.44C293.07 400.28 292.64 401.04 292.01 401.63C291.38 402.22 290.58 402.6 289.73 402.73L289.64 402.75C289.57 402.76 289.52 402.77 289.46 402.78C285.82 415.25 312.82 435.38 329.23 428.97L329.24 428.97C330.87 436.01 333.23 442.86 336.28 449.41L361.4 449.41C361.49 449.14 361.57 448.85 361.65 448.57C359.33 448.72 356.99 448.58 354.7 448.16C356.57 445.88 358.43 443.59 360.29 441.31C360.33 441.27 360.37 441.22 360.41 441.18C361.36 440.01 362.31 438.85 363.26 437.69L363.26 437.69C363.31 434.11 362.9 430.55 362.03 427.08L362.03 427.08ZM333.26 370.73L333.27 370.71L333.26 370.75L333.26 370.73ZM327.69 420.68L327.48 420.2C327.49 419.85 327.49 419.5 327.48 419.14C327.48 419.04 327.46 418.94 327.46 418.84C327.54 419.46 327.61 420.08 327.7 420.7L327.69 420.68Z" fill="#151515" fill-opacity="1.000000" fill-rule="nonzero"/>
		<path id="Vector" d="M88.93 365.86C88.93 370.93 84.81 375.03 79.73 375.03C74.64 375.03 70.52 370.93 70.52 365.86C70.52 360.8 74.64 356.69 79.73 356.69C84.81 356.69 88.93 360.8 88.93 365.86Z" fill="#151515" fill-opacity="1.000000" fill-rule="evenodd"/>
		<path id="Vector" d="M199.43 465.87C199.43 470.93 195.31 475.04 190.22 475.04C185.14 475.04 181.01 470.93 181.01 465.87C181.01 460.81 185.14 456.7 190.22 456.7C195.31 456.7 199.43 460.81 199.43 465.87Z" fill="#151515" fill-opacity="1.000000" fill-rule="evenodd"/>
		<path id="Vector" d="M618.81 465.87C618.81 470.93 614.68 475.04 609.6 475.04C604.51 475.04 600.39 470.93 600.39 465.87C600.39 460.81 604.51 456.7 609.6 456.7C614.68 456.7 618.81 460.81 618.81 465.87Z" fill="#151515" fill-opacity="1.000000" fill-rule="evenodd"/>
		<path id="Vector" d="M641.41 349.19C641.41 354.26 637.29 358.36 632.2 358.36C627.12 358.36 622.99 354.26 622.99 349.19C622.99 344.13 627.12 340.03 632.2 340.03C637.29 340.03 641.41 344.13 641.41 349.19Z" fill="#151515" fill-opacity="1.000000" fill-rule="evenodd"/>
		<path id="Vector" d="M614.62 264.19C614.62 269.25 610.5 273.35 605.41 273.35C600.33 273.35 596.21 269.25 596.21 264.19C596.21 259.12 600.33 255.02 605.41 255.02C610.5 255.02 614.62 259.12 614.62 264.19Z" fill="#151515" fill-opacity="1.000000" fill-rule="evenodd"/>
		<path id="Vector" d="M221.19 349.19C221.19 351.54 220.28 353.79 218.65 355.48C217.03 357.17 214.81 358.18 212.46 358.29C210.11 358.4 207.81 357.61 206.03 356.07C204.25 354.54 203.13 352.39 202.91 350.06C202.68 347.72 203.36 345.4 204.81 343.55C206.26 341.71 208.36 340.49 210.69 340.15C213.02 339.8 215.39 340.37 217.31 341.71C219.23 343.06 220.56 345.1 221.02 347.39C221.14 347.99 221.19 348.59 221.19 349.19Z" fill="#151515" fill-opacity="1.000000" fill-rule="nonzero"/>
		<path id="Vector" d="M414.56 290.85C414.56 295.92 410.44 300.02 405.35 300.02C400.27 300.02 396.14 295.92 396.14 290.85C396.14 285.79 400.27 281.69 405.35 281.69C410.44 281.69 414.56 285.79 414.56 290.85Z" fill="#151515" fill-opacity="1.000000" fill-rule="evenodd"/>
		<path id="Vector" d="M314.11 290.85C314.1 293.2 313.19 295.45 311.57 297.14C309.94 298.83 307.73 299.84 305.38 299.95C303.03 300.06 300.73 299.27 298.95 297.73C297.17 296.2 296.05 294.05 295.82 291.72C295.59 289.39 296.28 287.06 297.72 285.21C299.17 283.37 301.28 282.15 303.6 281.81C305.93 281.46 308.3 282.03 310.22 283.38C312.15 284.72 313.47 286.76 313.93 289.06C314.05 289.65 314.11 290.25 314.11 290.85Z" fill="#151515" fill-opacity="1.000000" fill-rule="nonzero"/>
		<path id="Vector" d="M195.24 264.19C195.24 266.53 194.33 268.78 192.7 270.47C191.08 272.16 188.86 273.17 186.51 273.28C184.16 273.39 181.86 272.6 180.08 271.07C178.3 269.53 177.18 267.38 176.96 265.05C176.73 262.72 177.41 260.39 178.86 258.54C180.31 256.7 182.41 255.48 184.74 255.14C187.07 254.8 189.44 255.36 191.36 256.71C193.28 258.06 194.61 260.09 195.07 262.39C195.19 262.98 195.25 263.58 195.24 264.19Z" fill="#151515" fill-opacity="1.000000" fill-rule="nonzero"/>
		<path id="Vector" d="M510.82 369.2C510.82 374.26 506.7 378.36 501.62 378.36C496.53 378.36 492.41 374.26 492.41 369.2C492.41 364.13 496.53 360.03 501.62 360.03C506.7 360.03 510.82 364.13 510.82 369.2Z" fill="#151515" fill-opacity="1.000000" fill-rule="evenodd"/>
		<path id="Vector" d="M370.19 281.69C370.19 289.05 364.2 295.02 356.8 295.02C349.4 295.02 343.41 289.05 343.41 281.69C343.41 274.32 349.4 268.35 356.8 268.35C364.2 268.35 370.19 274.32 370.19 281.69Z" fill="#151515" fill-opacity="1.000000" fill-rule="evenodd"/>
		<path id="Vector" d="M719 475.74L0.99 476C0.86 476 0.73 475.97 0.61 475.92C0.49 475.87 0.38 475.8 0.29 475.7C0.19 475.61 0.12 475.5 0.07 475.38C0.02 475.26 0 475.13 0 475C0 474.87 0.02 474.74 0.07 474.62C0.12 474.5 0.19 474.39 0.29 474.3C0.38 474.21 0.49 474.14 0.61 474.09C0.73 474.04 0.86 474.01 0.99 474.01L719 473.75C719.26 473.76 719.52 473.86 719.7 474.05C719.89 474.23 719.99 474.48 719.99 474.75C719.99 475.01 719.89 475.26 719.7 475.45C719.52 475.63 719.26 475.74 719 475.74Z" fill="#C0C0C0" fill-opacity="1.000000" fill-rule="nonzero"/>
	</g>
</svg>
