<svg width="19.000000" height="21.000000" viewBox="0 0 19 21" fill="none" xmlns="http://www.w3.org/2000/svg" xmlns:xlink="http://www.w3.org/1999/xlink">
	<desc>
			Created with Pixso.
	</desc>
	<defs/>
	<path id="Icon" d="M13.24 1.75C12.11 0.63 10.59 0 9 0C7.4 0 5.88 0.63 4.75 1.75C3.63 2.88 3 4.4 3 6C3 9.09 2.22 11.2 1.34 12.6C0.61 13.78 0.24 14.37 0.26 14.54C0.27 14.72 0.31 14.79 0.46 14.9C0.59 15 1.19 15 2.38 15L15.61 15C16.8 15 17.4 15 17.53 14.9C17.68 14.79 17.72 14.72 17.73 14.54C17.75 14.37 17.38 13.78 16.65 12.6C15.77 11.2 15 9.09 15 6C15 4.4 14.36 2.88 13.24 1.75ZM11.64 19C10.94 19.62 10.01 20 9 20C7.98 20 7.05 19.62 6.35 " stroke="#151515" stroke-opacity="1.000000" stroke-width="1.600000" stroke-linejoin="round" stroke-linecap="round"/>
</svg>
